<svg width="418" height="36" viewBox="0 0 418 36" fill="none" xmlns="http://www.w3.org/2000/svg">
<g opacity="0.28" clip-path="url(#clip0_1313_10587)">
<line y1="-3.5" x2="58.1008" y2="-3.5" transform="matrix(0.563449 0.826151 -0.689727 0.72407 0 0)" stroke="white" stroke-width="7"/>
<line y1="-3.5" x2="58.1008" y2="-3.5" transform="matrix(0.563449 0.826151 -0.689727 0.72407 16.7368 0)" stroke="white" stroke-width="7"/>
<line y1="-3.5" x2="58.1008" y2="-3.5" transform="matrix(0.563449 0.826151 -0.689727 0.72407 33.4737 0)" stroke="white" stroke-width="7"/>
<line y1="-3.5" x2="58.1008" y2="-3.5" transform="matrix(0.563449 0.826151 -0.689727 0.72407 50.2105 0)" stroke="white" stroke-width="7"/>
<line y1="-3.5" x2="58.1008" y2="-3.5" transform="matrix(0.563449 0.826151 -0.689727 0.72407 66.9474 0)" stroke="white" stroke-width="7"/>
<line y1="-3.5" x2="58.1008" y2="-3.5" transform="matrix(0.563449 0.826151 -0.689727 0.72407 83.6842 0)" stroke="white" stroke-width="7"/>
<line y1="-3.5" x2="58.1008" y2="-3.5" transform="matrix(0.563449 0.826151 -0.689727 0.72407 100.421 0)" stroke="white" stroke-width="7"/>
<line y1="-3.5" x2="58.1008" y2="-3.5" transform="matrix(0.563449 0.826151 -0.689727 0.72407 117.158 0)" stroke="white" stroke-width="7"/>
<line y1="-3.5" x2="58.1008" y2="-3.5" transform="matrix(0.563449 0.826151 -0.689727 0.72407 133.895 0)" stroke="white" stroke-width="7"/>
<line y1="-3.5" x2="58.1008" y2="-3.5" transform="matrix(0.563449 0.826151 -0.689727 0.72407 150.632 0)" stroke="white" stroke-width="7"/>
<line y1="-3.5" x2="58.1008" y2="-3.5" transform="matrix(0.563449 0.826151 -0.689727 0.72407 167.368 0)" stroke="white" stroke-width="7"/>
<line y1="-3.5" x2="58.1008" y2="-3.5" transform="matrix(0.563449 0.826151 -0.689727 0.72407 184.105 0)" stroke="white" stroke-width="7"/>
<line y1="-3.5" x2="58.1008" y2="-3.5" transform="matrix(0.563449 0.826151 -0.689727 0.72407 200.842 0)" stroke="white" stroke-width="7"/>
<line y1="-3.5" x2="58.1008" y2="-3.5" transform="matrix(0.563449 0.826151 -0.689727 0.72407 217.579 0)" stroke="white" stroke-width="7"/>
<line y1="-3.5" x2="58.1008" y2="-3.5" transform="matrix(0.563449 0.826151 -0.689727 0.72407 234.316 0)" stroke="white" stroke-width="7"/>
<line y1="-3.5" x2="58.1008" y2="-3.5" transform="matrix(0.563449 0.826151 -0.689727 0.72407 251.053 0)" stroke="white" stroke-width="7"/>
<line y1="-3.5" x2="58.1008" y2="-3.5" transform="matrix(0.563449 0.826151 -0.689727 0.72407 267.789 0)" stroke="white" stroke-width="7"/>
<line y1="-3.5" x2="58.1008" y2="-3.5" transform="matrix(0.563449 0.826151 -0.689727 0.72407 284.526 0)" stroke="white" stroke-width="7"/>
<line y1="-3.5" x2="58.1008" y2="-3.5" transform="matrix(0.563449 0.826151 -0.689727 0.72407 301.263 0)" stroke="white" stroke-width="7"/>
<line y1="-3.5" x2="58.1008" y2="-3.5" transform="matrix(0.563449 0.826151 -0.689727 0.72407 318 0)" stroke="white" stroke-width="7"/>
<line y1="-3.5" x2="58.1008" y2="-3.5" transform="matrix(0.563449 0.826151 -0.689727 0.72407 334.737 0)" stroke="white" stroke-width="7"/>
<line y1="-3.5" x2="58.1008" y2="-3.5" transform="matrix(0.563449 0.826151 -0.689727 0.72407 351.474 0)" stroke="white" stroke-width="7"/>
<line y1="-3.5" x2="58.1008" y2="-3.5" transform="matrix(0.563449 0.826151 -0.689727 0.72407 368.21 0)" stroke="white" stroke-width="7"/>
<line y1="-3.5" x2="58.1008" y2="-3.5" transform="matrix(0.563449 0.826151 -0.689727 0.72407 384.947 0)" stroke="white" stroke-width="7"/>
<line y1="-3.5" x2="58.1008" y2="-3.5" transform="matrix(0.563449 0.826151 -0.689727 0.72407 -18 0)" stroke="white" stroke-width="7"/>
</g>
<defs>
<clipPath id="clip0_1313_10587">
<rect width="417.684" height="36" fill="white"/>
</clipPath>
</defs>
</svg>
